<?xml version="1.0" encoding="UTF-8"?>
<svg id="Layer_1" data-name="Layer 1" xmlns="http://www.w3.org/2000/svg" viewBox="0 0 48 48">
  <defs>
    <style>
      .cls-1 {
        fill: #f2f2f2;
      }

      .cls-2 {
        fill: #525252;
      }
    </style>
  </defs>
  <circle class="cls-1" cx="24" cy="24" r="24"/>
  <path class="cls-2" d="m38.03,37.62c-2.71,4.33-8.12,8.99-15,8.99-1.46,0-2.92-.22-4.39-.65-13.16-3.79-12.24-14.84-9.37-31.24C10.9,5.56,19.57,1.39,26.88,1.39c4.01,0,7.31,1.25,8.83,3.36,2.76,3.9.92,11.59-2.44,17-.76-.05-1.52-.11-2.27-.11-3.41,0-6.88.92-9.91,2.6-1.25-3.68-.87-8.61-.87-8.66.05-.43-.22-.81-.65-.87-.38-.05-.76.16-.87.6l-3.84,14.46c-.11.38.11.76.43.92.32.16.76.11.97-.22,1.14-1.52,2.49-2.82,4.06-3.9,1.41,2.49,3.41,3.03,4.87,3.03h.65c2.71-.27,5.69-2.49,8.12-6.12,2.92.6,4.98,2.06,6.01,4.06,1.14,2.44.38,6.39-1.95,10.07Zm-5.79-14.35c-2.11,2.82-4.44,4.55-6.55,4.77-1.73.16-3.09-.6-4.01-2.33,2.87-1.62,6.12-2.49,9.31-2.49.43,0,.81,0,1.25.05Z"/>
</svg>